<?xml version="1.0" encoding="utf-8"?>
<!-- Generator: Adobe Illustrator 24.2.3, SVG Export Plug-In . SVG Version: 6.00 Build 0)  -->
<svg version="1.1" id="Layer_1" xmlns="http://www.w3.org/2000/svg" xmlns:xlink="http://www.w3.org/1999/xlink" x="0px" y="0px"
	 viewBox="0 0 228.7 39.1" style="enable-background:new 0 0 228.7 39.1;" xml:space="preserve">
<style type="text/css">
	.st0{fill:#FFFFFF;}
	.st1{fill:#F2C438;}
	.st2{fill:#E56142;}
	.st3{fill:#508BBF;}
</style>
<g>
	<g>
		<path class="st0" d="M140,29c-1.3-0.8-2.4-1.9-3.1-3.3c-0.7-1.4-1.1-3.1-1.1-5v-6.9c0-1.9,0.4-3.5,1.1-5c0.7-1.4,1.8-2.5,3.1-3.3
			s2.9-1.2,4.6-1.2c1.4,0,2.8,0.3,4,0.9s2.2,1.5,3,2.6s1.4,2.4,1.7,3.9h-3.1c-0.3-0.9-0.7-1.6-1.2-2.3s-1.2-1.2-2-1.6
			s-1.6-0.6-2.4-0.6c-1.1,0-2.2,0.3-3,0.8c-0.9,0.5-1.5,1.3-2,2.3s-0.7,2.1-0.7,3.4v6.9c0,1.3,0.2,2.4,0.7,3.4s1.1,1.8,2,2.3
			s1.9,0.8,3,0.8c0.8,0,1.6-0.2,2.4-0.5s1.4-0.9,2-1.5c0.6-0.7,1-1.5,1.2-2.4h3.1c-0.3,1.5-0.8,2.7-1.7,3.9c-0.8,1.1-1.8,2-3.1,2.6
			c-1.2,0.6-2.5,0.9-4,0.9C142.9,30.2,141.3,29.8,140,29z"/>
		<path class="st0" d="M156.1,11.9h3.1l5.7,16.2l-1.6,3.3L156.1,11.9z M172.1,11.9l-7.7,22.3c-0.3,0.8-0.6,1.5-1.1,2s-1,0.8-1.7,1
			s-1.5,0.3-2.4,0.3h-0.7v-2.9h0.7c0.8,0,1.4-0.2,1.9-0.5s0.9-0.9,1.2-1.8l6.7-20.4C169,11.9,172.1,11.9,172.1,11.9z"/>
		<path class="st0" d="M178.2,29.3c-1.2-0.6-2-1.5-2.6-2.6s-0.9-2.6-0.9-4.3v-3c0-1.7,0.3-3.1,0.9-4.2c0.6-1.2,1.5-2,2.6-2.6
			c1.2-0.6,2.6-0.9,4.3-0.9c1,0,1.9,0.1,2.7,0.3s1.6,0.5,2.2,1s1.2,1,1.7,1.6l-2.2,2c-0.6-0.7-1.2-1.2-1.9-1.5s-1.5-0.5-2.3-0.5
			c-1.6,0-2.8,0.4-3.6,1.2c-0.8,0.8-1.2,2-1.2,3.7v3c0,1.6,0.4,2.9,1.2,3.7c0.8,0.8,2,1.3,3.6,1.3c0.9,0,1.7-0.2,2.4-0.5
			s1.4-0.8,2-1.5l2.1,2c-0.5,0.6-1,1.1-1.7,1.6s-1.4,0.7-2.2,0.9c-0.8,0.2-1.7,0.3-2.7,0.3C180.8,30.2,179.3,29.9,178.2,29.3z"/>
		<path class="st0" d="M195.9,25.2c0,0.6,0.1,1.1,0.4,1.4c0.3,0.3,0.7,0.5,1.2,0.5h1.7V30h-2.1c-1.3,0-2.4-0.4-3.1-1.3
			s-1.1-2-1.1-3.5V4.7h3L195.9,25.2L195.9,25.2z"/>
		<path class="st0" d="M206.3,29.2c-1.2-0.6-2.1-1.6-2.7-2.8c-0.6-1.2-0.9-2.7-0.9-4.4v-2c0-1.8,0.3-3.3,0.9-4.6
			c0.6-1.3,1.5-2.2,2.6-2.9s2.5-1,4.1-1c1.5,0,2.8,0.4,3.9,1.1c1.1,0.7,1.9,1.7,2.4,3c0.6,1.3,0.8,2.9,0.8,4.8V22h-12.6v-2.5h9.7
			v-0.1c0-1.6-0.4-2.9-1.2-3.8s-1.8-1.3-3.1-1.3c-1.5,0-2.7,0.5-3.5,1.4c-0.8,1-1.2,2.3-1.2,4.1v2.3c0,1.7,0.4,2.9,1.3,3.8
			c0.9,0.9,2.1,1.3,3.7,1.3c0.8,0,1.5-0.2,2.3-0.5s1.4-0.8,2-1.3l2,2c-0.9,0.9-1.9,1.5-3,2s-2.2,0.7-3.4,0.7
			C208.9,30.2,207.5,29.9,206.3,29.2z"/>
	</g>
</g>
<g>
	<g>
		<g>
			<path class="st0" d="M53.7,29.8c-1.1-0.2-2.1-0.6-3.1-1c-0.9-0.5-1.8-1-2.7-1.7l1.9-2.3c1,0.9,2.1,1.5,3.3,2
				c1.2,0.4,2.5,0.7,4,0.7c2,0,3.6-0.4,4.6-1.2c1.1-0.8,1.6-1.8,1.6-3.3l0,0c0-0.9-0.2-1.7-0.7-2.2s-1.1-1-1.9-1.2
				c-0.8-0.3-1.8-0.5-3-0.7h-0.1h-0.1l-0.4-0.1c-1.7-0.3-3.1-0.6-4.2-1c-1.1-0.4-2-1-2.7-1.9c-0.7-0.9-1.1-2.2-1.1-3.9l0,0
				c0-1.6,0.3-2.9,1-4s1.7-2,3.1-2.5c1.3-0.6,3-0.9,4.8-0.9c0.9,0,1.8,0.1,2.6,0.3c0.9,0.2,1.7,0.5,2.6,0.9C64.3,6,65.1,6.4,66,7
				l-1.7,2.4c-1-0.7-2-1.3-3-1.6c-1-0.4-2-0.5-3-0.5c-1.9,0-3.4,0.4-4.4,1.2s-1.6,1.9-1.6,3.3l0,0c0,0.9,0.3,1.6,0.8,2.2
				c0.5,0.5,1.2,0.9,2,1.2s1.9,0.5,3.3,0.8h0.1h0.1c0.1,0,0.1,0,0.2,0c0.1,0,0.1,0,0.2,0c1.6,0.3,2.9,0.7,3.9,1.1s1.9,1.1,2.6,2
				s1,2.2,1,3.7l0,0c0,1.5-0.4,2.9-1.1,4s-1.8,1.9-3.2,2.5s-3.1,0.9-5,0.9C56,30.2,54.8,30.1,53.7,29.8z"/>
			<path class="st0" d="M74.1,29.2c-1.1-0.6-2-1.5-2.5-2.7c-0.6-1.2-0.9-2.6-0.9-4.2v-2.9c0-1.6,0.3-3,0.9-4.2s1.4-2.1,2.5-2.7
				s2.4-0.9,4-0.9s2.9,0.3,4,0.9c1.1,0.6,2,1.5,2.5,2.7c0.6,1.2,0.9,2.6,0.9,4.2v3c0,1.6-0.3,3-0.9,4.2c-0.6,1.2-1.4,2.1-2.5,2.7
				s-2.4,0.9-4,0.9C76.5,30.2,75.2,29.9,74.1,29.2z M81.3,26c0.8-0.9,1.2-2.1,1.2-3.7v-3c0-1.6-0.4-2.8-1.2-3.6
				c-0.8-0.9-1.9-1.3-3.3-1.3s-2.5,0.4-3.2,1.3c-0.8,0.9-1.1,2.1-1.1,3.6v3c0,1.6,0.4,2.8,1.2,3.7c0.8,0.9,1.8,1.3,3.3,1.3
				C79.5,27.3,80.6,26.9,81.3,26z"/>
			<path class="st0" d="M93.6,25.2c0,0.6,0.1,1.1,0.4,1.4s0.7,0.5,1.2,0.5h1.7v2.8h-2.1c-1.3,0-2.4-0.4-3.1-1.2
				c-0.7-0.8-1.1-2-1.1-3.5V4.7h3V25.2z"/>
			<path class="st0" d="M101.7,28.7c-1.1-0.9-1.7-2.3-1.7-4.2c0-1.7,0.5-3.1,1.6-4c1-0.9,2.5-1.4,4.5-1.4h5.6l0.2,2.6h-5.8
				c-1,0-1.8,0.2-2.4,0.7s-0.8,1.2-0.8,2.1c0,1,0.4,1.7,1.1,2.2s1.7,0.7,3.1,0.7c1.5,0,2.6-0.2,3.3-0.5c0.8-0.3,1.1-0.7,1.1-1.3
				l0.4,2.4c-0.3,0.4-0.8,0.8-1.3,1.1c-0.5,0.3-1.1,0.5-1.8,0.7c-0.7,0.1-1.4,0.2-2.2,0.2C104.5,30.1,102.8,29.7,101.7,28.7z
				 M111.5,18.4c0-1.3-0.4-2.3-1.1-3.1c-0.7-0.7-1.7-1.1-3-1.1c-0.8,0-1.6,0.1-2.3,0.4c-0.8,0.3-1.4,0.6-2,1.1l-2.2-1.5
				c0.7-0.8,1.6-1.5,2.7-1.9c1.1-0.5,2.4-0.7,3.7-0.7c1.5,0,2.8,0.3,3.8,0.8c1.1,0.5,1.9,1.3,2.4,2.3c0.6,1,0.8,2.2,0.8,3.6v11.6
				h-2.9L111.5,18.4z"/>
			<path class="st0" d="M119.8,11.8h3v18h-3V11.8z M128.8,14.7c-0.5-0.2-1.1-0.3-1.8-0.3c-1.3,0-2.3,0.4-3.1,1.1
				c-0.7,0.7-1.1,1.7-1.1,3l-0.4-3.5c0.6-1.1,1.4-1.9,2.4-2.5s2.1-0.9,3.2-0.9c0.8,0,1.6,0.1,2.2,0.4c0.7,0.2,1.2,0.6,1.7,1l-2,2.6
				C129.7,15.2,129.3,14.9,128.8,14.7z"/>
		</g>
	</g>
</g>
<g>
	<g>
		<path class="st1" d="M3.6,3.4l2.5,2.5v23.7L3.6,32V3.4z M8.6,8.3l2.5,2.5v13.7l-2.5,2.6V8.3z M13.6,13.4l2.5,2.5v3.7L13.6,22V13.4
			z"/>
	</g>
</g>
<g>
	<g>
		<path class="st2" d="M32.2,3.3l-2.5,2.5H6.1L3.6,3.3H32.2z M27.3,8.3l-2.5,2.5H11.1L8.6,8.3H27.3z M22.2,13.3l-2.5,2.5H16
			l-2.5-2.5C13.6,13.3,22.2,13.3,22.2,13.3z"/>
	</g>
</g>
<g>
	<g>
		<path class="st3" d="M33.8,5.1V10L10.3,33.6h-5L33.8,5.1z M33.8,15v4.9L20.1,33.6h-4.9L33.8,15z M33.8,24.9v4.9l-3.7,3.7h-4.9
			L33.8,24.9z"/>
	</g>
</g>
</svg>
